<svg height="1024" preserveAspectRatio="none" viewBox="0 0 1024 1024" width="1024" xmlns="http://www.w3.org/2000/svg" xmlns:xlink="http://www.w3.org/1999/xlink"><path d="m969.6 351.25q-8.6-20.85-19.4-40.85-6.1-11.35-12.9-22.4-29.35-47.55-71.55-89.8-138.25-138.25-333.8-138.25-195.5 0-333.75 138.25-138.25 138.25-138.25 333.75 0 195.55 138.25 333.8 138.25 138.2 333.75 138.2 195.55 0 333.8-138.2 76.15-76.2 110.35-169.75 27.85-76.25 27.85-164.05 0-67.35-16.4-127.95-1.85-6.85-3.9-13.6-6.15-19.95-14.05-39.15z" fill-opacity=".098039"/><path d="m969.7 392q-1.75-6.85-3.65-13.6-1.52421875-5.28554687-3.2-10.55-2.47128906-7.946875-5.25-15.8-9.75-27.55-23.15-53.65-5.8-11.35-12.3-22.4-30.65-52-76.35-97.75-109-109-253.65-132.05-24.5-3.9-50.05-5.35-14.9-.85-30.1-.85-14.1 0-27.9.75-177.55 9.2-305.85 137.5-138.25 138.25-138.25 333.75 0 195.55 138.25 333.8 84.79003906 84.75703125 191.1 117.55 54.53808594 16.81308594 114.75 19.95.2 0 .4 0 12.15.6 24.5.7 1.5 0 3 0 15.25 0 30.1-.8 3.5-.2 6.95-.45 30.05-2.15 58.7-7.7 11.8-2.3 23.4-5.15 120.6-30.05 214.65-124.1 72.9-72.95 107.35-161.8 27.75-71.6 30.55-153.5.3-9.2.3-18.5 0-1 0-2 0-.5 0-1-.35-61.3-14.3-117z" fill="#fff"/><path d="m922.15 276q-7.51699219-12.75332031-15.95-25.15l-228.2 497.6 130.9 130.9q18.94707031-15.59707031 36.9-33.55 72.9-72.95 107.35-161.8 27.75-71.6 30.55-153.5.3-9.2.3-18.5 0-1 0-2 0-.5 0-1-.35-61.3-14.3-117-1.75-6.85-3.65-13.6-1.52421875-5.28554687-3.2-10.55-2.47128906-7.946875-5.25-15.8-9.75-27.55-23.15-53.65-5.8-11.35-12.3-22.4z" fill-opacity=".2"/><path d="m688.95 738.95q-67.090625 58.97675781-143.2-6.95-80.4-69.6-150.7 0-70.3 69.6-150.65 0m.15-431h534.85m-534.85 144.65h534.85m-534.85 144.65h534.85" fill="none" stroke="#7ae4f8" stroke-linecap="round" stroke-linejoin="round" stroke-width="30"/><path d="m852.75 501.1q6.25-14.25 12.65-29.4-54.95-10.35-107.9-45.75-6.45 15.1-12.4 29.55 49.45 38.15 107.65 45.6z" fill="#fff"/><path d="m839.25 531.15q6.6-14.5 13.5-30.05-58.2-7.45-107.65-45.6-6.4 15.75-12.15 30.6-58.95 152.3-47.15 212.65l2.85 1.2-13.65 32.2q-2.4 5.7-.1 11.45 2.35 5.8 8.1 8.2 5.7 2.4 11.45.1 5.8-2.35 8.2-8.05l13.65-32.2 2.85 1.2q51.6-33.45 120.1-181.7m94.45-236.6q-27.15527344-51.23632812-68.45-96.65-60.028125 118.19628906-100.25 210.55-3.85 8.85-7.5 17.5 52.95 35.4 107.9 45.75 3.65-8.65 7.4-17.55 29.09375-70.51796875 60.9-159.6z" fill="#333"/><image height="100" transform="translate(1044 85.5)" width="290" xlink:href="./images/Image_bitmap_1.png"/></svg>